<svg height="512pt" viewBox="-32 0 511 512" width="512pt" xmlns="http://www.w3.org/2000/svg"><path d="m401.101562 512h-353.46875c-25.75 0-47.132812-20.800781-47.132812-47.132812v-214.382813c0-21.167969 8.246094-41.074219 23.214844-56.046875l190.046875-190.042969c2.8125-2.816406 6.628906-4.394531 10.605469-4.394531h.011718c3.984375.00390625 7.800782 1.589844 10.613282 4.410156l190.125 190.800782c14.90625 14.960937 23.113281 34.832031 23.113281 55.949218v213.707032c0 25.988281-21.140625 47.132812-47.128907 47.132812zm0 0" fill="#e1feff"/><path d="m401.101562 512c25.988282 0 47.132813-21.144531 47.132813-47.132812v-213.707032c0-21.117187-8.210937-40.988281-23.117187-55.949218l-190.125-190.800782c-2.8125-2.820312-6.628907-4.40624975-10.613282-4.410156-.003906 0-.007812 0-.011718 0v512zm0 0" fill="#bdfdff"/><path d="m272.566406 353.46875h-33.199218v-81.402344c0-8.285156-6.71875-15-15-15-8.285157 0-15 6.714844-15 15v145.667969h-33.203126c-8.28125 0-15 6.714844-15 15s6.71875 15 15 15h33.203126v64.265625h30v-128.53125h33.199218c8.285156 0 15-6.71875 15-15 0-8.285156-6.714844-15-15-15zm0 0" fill="#00b14c"/><path d="m272.566406 383.46875c8.285156 0 15-6.71875 15-15 0-8.285156-6.714844-15-15-15h-33.199218v-81.402344c0-8.285156-6.71875-15-15-15v254.933594h15v-128.53125zm0 0" fill="#007e3f"/><path d="m176.164062 447.734375h-24.097656c-39.277344 0-71.234375-31.957031-71.234375-71.234375v-24.101562c0-8.28125 6.71875-15 15-15h24.101563c39.277344 0 71.230468 31.957031 71.230468 71.234374v24.101563c0 8.285156-6.714843 15-15 15zm0 0" fill="#00e162"/><path d="m224.367188 287.066406h-24.101563c-39.277344 0-71.234375-31.957031-71.234375-71.234375v-24.097656c0-8.285156 6.71875-15 15-15h24.101562c39.277344 0 71.234376 31.953125 71.234376 71.230469v24.101562c0 8.285156-6.71875 15-15 15zm0 0" fill="#00e162"/><path d="m296.664062 383.46875h-24.097656c-8.285156 0-15-6.71875-15-15v-24.101562c0-39.277344 31.953125-71.234376 71.234375-71.234376h24.097657c8.285156 0 15 6.71875 15 15v24.101563c0 39.277344-31.953126 71.234375-71.234376 71.234375zm0 0" fill="#00b14c"/></svg>